<?xml version="1.0" encoding="UTF-8"?>
<svg version="1.1" xmlns="http://www.w3.org/2000/svg" width="437" height="332">
<path d="M0 0 C144.21 0 288.42 0 437 0 C437 109.56 437 219.12 437 332 C292.79 332 148.58 332 0 332 C0 222.44 0 112.88 0 0 Z " fill="#000000" transform="translate(0,0)"/>
<path d="M0 0 C68.97 0 137.94 0 209 0 C208 6 208 6 201 22 C144.57 22 88.14 22 30 22 C32.64 33.55 35.28 45.1 38 57 C38 57.66 38 58.32 38 59 C87.5 59 137 59 188 59 C186.80529805 61.98675486 185.6215831 64.90716755 184.29516602 67.8269043 C183.97044815 68.54343674 183.64573029 69.25996918 183.31117249 69.99821472 C182.96227463 70.76579605 182.61337677 71.53337738 182.25390625 72.32421875 C181.4901126 74.0123147 180.72644544 75.70046788 179.96289062 77.38867188 C178.78011772 80.00087938 177.59648969 82.61268522 176.41040039 85.22338867 C169.67832603 100.0494845 163.34838326 114.99473048 157 130 C115.75 130 74.5 130 32 130 C27 112 27 112 27 109 C63.96 109 100.92 109 139 109 C139.99 106.03 140.98 103.06 142 100 C142.99935325 97.3833728 144.01109298 94.7824048 145.0625 92.1875 C145.31837891 91.54619141 145.57425781 90.90488281 145.83789062 90.24414062 C147.11036891 87.08093625 148.47298561 84.05402879 150 81 C107.1 81 64.2 81 20 81 C16.62550004 70.87650013 16.62550004 70.87650013 15.63720703 66.68994141 C15.30138107 65.28139389 15.30138107 65.28139389 14.95877075 63.84439087 C14.72745453 62.85675751 14.49613831 61.86912415 14.2578125 60.8515625 C14.00756317 59.79955658 13.75731384 58.74755066 13.4994812 57.66366577 C12.70415891 54.3183381 11.91415844 50.9717866 11.125 47.625 C10.08885126 43.24149195 9.04976578 38.85869441 8.0078125 34.4765625 C7.75598206 33.41536194 7.50415161 32.35416138 7.24468994 31.26080322 C5.44122836 23.71167654 3.52145839 16.19956347 1.46609497 8.71499634 C0.65350117 5.71911318 0 3.1201998 0 0 Z " fill="#BAE037" transform="translate(125,41)"/>
<path d="M0 0 C3.62821852 12.75531498 6.97085186 25.56932141 10.17456055 38.4375 C10.92993564 41.46963607 11.69028851 44.50049211 12.45117188 47.53125 C15.3216198 59.00568662 18.05673853 70.50428676 20.69190979 82.03492737 C22.5313624 90.05096103 24.4569602 98.0431119 26.4296875 106.02734375 C26.85547844 107.75079514 26.85547844 107.75079514 27.28987122 109.50906372 C28.44890398 114.19269559 29.61089942 118.87558363 30.77539062 123.55786133 C31.64229448 127.04696049 32.50499893 130.53707692 33.3671875 134.02734375 C33.6327243 135.08960678 33.89826111 136.15186981 34.17184448 137.24632263 C34.41274811 138.22327591 34.65365173 139.20022919 34.90185547 140.20678711 C35.11470184 141.06324326 35.32754822 141.9196994 35.54684448 142.80210876 C36 145 36 145 36 148 C32.04 148 28.08 148 24 148 C23.54109375 146.08058594 23.0821875 144.16117188 22.609375 142.18359375 C22.14938673 140.26697596 21.68938345 138.35036174 21.22900391 136.43383789 C20.76464197 134.49852314 20.30221134 132.56274531 19.83984375 130.62695312 C19.38544922 128.73686523 19.38544922 128.73686523 18.921875 126.80859375 C18.64956055 125.67220459 18.37724609 124.53581543 18.09667969 123.36499023 C17.1830112 119.65912179 16.19471793 115.97482472 15.20507812 112.28857422 C12.64399532 102.74048657 10.22245983 93.15745215 7.796875 83.57421875 C7.30936105 81.6498834 6.8218323 79.72555181 6.33428955 77.80122375 C5.32176009 73.80361538 4.31005545 69.80579927 3.29882812 65.80786133 C2.00088926 60.67707182 0.69984083 55.54707608 -0.60191727 50.41725445 C-1.605477 46.46041494 -2.60691504 42.50304076 -3.60774994 38.54551125 C-4.08702963 36.6518169 -4.56709345 34.75832084 -5.04795074 32.86502647 C-5.71551817 30.2356912 -6.38011238 27.605622 -7.04394531 24.9753418 C-7.24337738 24.19258377 -7.44280945 23.40982574 -7.64828491 22.60334778 C-9 17.22829338 -9 17.22829338 -9 15 C-10.2375 15.36351562 -11.475 15.72703125 -12.75 16.1015625 C-26.41926618 20.0802596 -40.17057125 23.62346415 -54 27 C-54.99 22.71 -55.98 18.42 -57 14 C-49.36570614 12.00154543 -41.73019548 10.00783476 -34.09350586 8.01855469 C-31.49441998 7.34123933 -28.89581812 6.66211 -26.29760742 5.98144531 C-22.56777741 5.00504257 -18.83675794 4.03330943 -15.10546875 3.0625 C-13.93976852 2.75626709 -12.7740683 2.45003418 -11.57304382 2.13452148 C-10.49214981 1.85423096 -9.4112558 1.57394043 -8.29760742 1.28515625 C-6.86864388 0.91209351 -6.86864388 0.91209351 -5.41081238 0.53149414 C-3 0 -3 0 0 0 Z " fill="#5FB841" transform="translate(105,22)"/>
<path d="M0 0 C4.62 0 9.24 0 14 0 C15.63631318 3.94670507 17.272236 7.89356772 18.90722656 11.84082031 C19.46169546 13.17912705 20.01637708 14.51734567 20.57128906 15.85546875 C21.89934093 19.05813535 23.22505963 22.26172211 24.54492188 25.46777344 C25.45255372 27.67106498 26.36456278 29.87256463 27.28320312 32.07128906 C27.64865234 32.9578418 28.01410156 33.84439453 28.390625 34.7578125 C28.70547852 35.51465332 29.02033203 36.27149414 29.34472656 37.05126953 C30 39 30 39 30 42 C25.05 42 20.1 42 15 42 C14.505 39.525 14.505 39.525 14 37 C12.60974609 37.01740234 12.60974609 37.01740234 11.19140625 37.03515625 C9.99386719 37.04417969 8.79632813 37.05320312 7.5625 37.0625 C6.36753906 37.07410156 5.17257812 37.08570313 3.94140625 37.09765625 C1 37 1 37 0 36 C-0.66 37.98 -1.32 39.96 -2 42 C-6.62 42 -11.24 42 -16 42 C-15.15062174 36.90373042 -13.8636839 32.73428706 -12 28 C-11.24311492 25.99070291 -10.48944852 23.98019166 -9.73828125 21.96875 C-7.4921875 15.97916667 -5.24609375 9.98958333 -3 4 C-2.01 4 -1.02 4 0 4 C3.7638093 12.85808143 5.75380605 18.60466172 3 28 C5.31 28 7.62 28 10 28 C9.80365967 27.47156494 9.60731934 26.94312988 9.4050293 26.39868164 C8.49765145 23.9538543 7.59256688 21.50818375 6.6875 19.0625 C6.37876953 18.23169922 6.07003906 17.40089844 5.75195312 16.54492188 C3.72542882 11.06264032 1.82140378 5.55388044 0 0 Z " fill="#EFEFEF" transform="translate(290,256)"/>
<path d="M0 0 C7.59 0 15.18 0 23 0 C23 2.97 23 5.94 23 9 C21.68 9 20.36 9 19 9 C19 16.59 19 24.18 19 32 C20.32 32 21.64 32 23 32 C23 35.3 23 38.6 23 42 C15.41 42 7.82 42 0 42 C0 38.7 0 35.4 0 32 C1.32 32 2.64 32 4 32 C4 24.74 4 17.48 4 10 C2.68 10 1.36 10 0 10 C0 6.7 0 3.4 0 0 Z " fill="#ECECEC" transform="translate(118,256)"/>
<path d="M0 0 C4.95 0 9.9 0 15 0 C15 13.86 15 27.72 15 42 C10.05 42 5.1 42 0 42 C0 28.14 0 14.28 0 0 Z " fill="#EAEAEA" transform="translate(80,256)"/>
<path d="M0 0 C4.62 0 9.24 0 14 0 C14 13.53 14 27.06 14 41 C9.38 41 4.76 41 0 41 C0 27.47 0 13.94 0 0 Z " fill="#F7F7F7" transform="translate(323,256)"/>
<path d="M0 0 C4.62 0 9.24 0 14 0 C14 13.53 14 27.06 14 41 C9.38 41 4.76 41 0 41 C0 27.47 0 13.94 0 0 Z " fill="#F7F7F7" transform="translate(191,256)"/>
<path d="M0 0 C0 13.86 0 27.72 0 42 C-8 42 -8 42 -10.06518555 40.9609375 C-15.26986661 34.9969918 -14.9267918 28.61419884 -14.8125 21 C-14.84408203 19.75476563 -14.87566406 18.50953125 -14.90820312 17.2265625 C-14.88673467 11.47301542 -14.85621856 7.04469511 -10.88671875 2.625 C-7.14925542 -0.86079494 -5.85963089 0 0 0 Z " fill="#F0F0F0" transform="translate(247,256)"/>
<path d="M0 0 C0 13.86 0 27.72 0 42 C-8 42 -8 42 -10.06518555 40.9609375 C-15.26986661 34.9969918 -14.9267918 28.61419884 -14.8125 21 C-14.84408203 19.75476563 -14.87566406 18.50953125 -14.90820312 17.2265625 C-14.88673467 11.47301542 -14.85621856 7.04469511 -10.88671875 2.625 C-7.14925542 -0.86079494 -5.85963089 0 0 0 Z " fill="#F0F0F0" transform="translate(50,256)"/>
<path d="M0 0 C4.02345025 2.23447669 7.16982432 4.86257936 8.86328125 9.22265625 C9.54311511 13.2261223 9.22648662 16.24853448 7.375 19.875 C4.96651113 23.0440643 3.6859693 24.5758755 0 26 C-4.78843042 26.53204782 -6.98517492 26.49783872 -11.3125 24.375 C-15.35070586 20.80635297 -16.77134963 17.82920294 -17.4375 12.5 C-16.79222346 7.33778768 -14.70698109 4.42248424 -10.75 1.125 C-7.01848603 -0.40152844 -3.90119902 -0.97887228 0 0 Z " fill="#95D13C" transform="translate(169,187)"/>
<path d="M0 0 C3.3792573 2.03005291 6.22397384 4.44794768 8 8 C8.57425085 12.70697417 8.45554552 16.12144792 6.25 20.375 C1.67574495 25.71163089 1.67574495 25.71163089 -2.04296875 26.3515625 C-6.21318274 26.61700326 -9.10645472 26.4017412 -12.4375 23.75 C-16.45264502 19.44106388 -17.55713207 16.14399046 -17.4609375 10.32421875 C-16.65549538 6.26287923 -14.05462619 3.65894922 -11 1 C-7.48308711 -0.75845645 -3.82789463 -0.68065337 0 0 Z " fill="#91CE3B" transform="translate(260,187)"/>
<path d="M0 0 C0 13.53 0 27.06 0 41 C-8.06089744 41 -8.06089744 41 -10.87890625 38.34375 C-15.54998895 33.1399885 -15.06297526 27.1609437 -14.9375 20.5 C-14.97294922 19.30246094 -15.00839844 18.10492188 -15.04492188 16.87109375 C-15.00306954 8.4727252 -15.00306954 8.4727252 -12.36376953 4.59765625 C-7.92947656 0.3928509 -6.49076731 0 0 0 Z " fill="#F7F7F7" transform="translate(160,256)"/>
<path d="M0 0 C4.95 0 9.9 0 15 0 C15 10.23 15 20.46 15 31 C10.05 31 5.1 31 0 31 C0 20.77 0 10.54 0 0 Z " fill="#F0F0F0" transform="translate(377,267)"/>
<path d="M0 0 C3.82547849 1.91273924 4.64606104 7.13920463 6 11 C7.43314755 15.91364874 6.62073008 19.75159796 5.47265625 24.6328125 C4.86946338 27.25144292 4.86946338 27.25144292 5 31 C8.63 31.33 12.26 31.66 16 32 C16 32.66 16 33.32 16 34 C13.85423363 34.02685938 11.70837355 34.04633088 9.5625 34.0625 C8.36753906 34.07410156 7.17257812 34.08570313 5.94140625 34.09765625 C3 34 3 34 2 33 C1.34 34.98 0.68 36.96 0 39 C-4.62 39 -9.24 39 -14 39 C-13.15064285 33.90385713 -11.85885034 29.73564253 -10 25 C-9.25455328 23.00251537 -8.51262634 21.00371512 -7.7734375 19.00390625 C-6.97400735 16.85675258 -6.17452724 14.70961752 -5.375 12.5625 C-4.96765625 11.46228516 -4.5603125 10.36207031 -4.140625 9.22851562 C-3.75132812 8.18501953 -3.36203125 7.14152344 -2.9609375 6.06640625 C-2.60821777 5.11709229 -2.25549805 4.16777832 -1.89208984 3.18969727 C-1 1 -1 1 0 0 Z " fill="#E6E6E6" transform="translate(288,259)"/>
<path d="M0 0 C16.93975393 -1.02896143 16.93975393 -1.02896143 21.5625 2.0625 C25.36789601 6.28506509 24.70598633 12.20013091 24.63671875 17.5390625 C24 21 24 21 22.3515625 23.38671875 C19.41793813 25.39932152 17.21050097 25.7693765 13.6875 26.1875 C11.97046875 26.40599609 11.97046875 26.40599609 10.21875 26.62890625 C9.1565625 26.75136719 8.094375 26.87382812 7 27 C5.56175532 27.20312871 4.12403427 27.4101086 2.6875 27.625 C1.800625 27.74875 0.91375 27.8725 0 28 C0 25.69 0 23.38 0 21 C3.3 21 6.6 21 10 21 C10 16.38 10 11.76 10 7 C6.7 7 3.4 7 0 7 C0 4.69 0 2.38 0 0 Z " fill="#F8F8F8" transform="translate(339,257)"/>
<path d="M0 0 C0.97839844 0.16242188 1.95679688 0.32484375 2.96484375 0.4921875 C1.43804394 3.74230591 -0.40173275 6.64268688 -2.41015625 9.6171875 C-3.11140625 10.65746094 -3.81265625 11.69773437 -4.53515625 12.76953125 C-4.92703125 13.3507373 -5.31890625 13.93194336 -5.72265625 14.53076172 C-7.21487634 16.76076473 -8.68810232 19.00273001 -10.16015625 21.24609375 C-10.69721191 22.06126465 -11.23426758 22.87643555 -11.78759766 23.71630859 C-12.86097475 25.34591661 -13.93101947 26.97772493 -14.99755859 28.61181641 C-15.4920752 29.35995605 -15.9865918 30.1080957 -16.49609375 30.87890625 C-16.93743652 31.55139404 -17.3787793 32.22388184 -17.83349609 32.91674805 C-19.03515625 34.4921875 -19.03515625 34.4921875 -21.03515625 35.4921875 C-22.01261299 23.81951602 -22.82470153 12.42841567 -15.03515625 2.87109375 C-10.14968979 -1.00292848 -6.02095029 -0.5801899 0 0 Z " fill="#F0F0F0" transform="translate(228.03515625,255.5078125)"/>
<path d="M0 0 C12.21 0 24.42 0 37 0 C37 3.3 37 6.6 37 10 C31.89136104 10.0246501 26.78275641 10.04283607 21.67407227 10.05493164 C19.93480832 10.05997204 18.19554864 10.0668043 16.45629883 10.07543945 C13.96174063 10.08751792 11.46723827 10.09323108 8.97265625 10.09765625 C8.19036148 10.10281754 7.40806671 10.10797882 6.60206604 10.11329651 C4.73432886 10.11349226 2.86670796 10.06199694 1 10 C0.67 9.67 0.34 9.34 0 9 C0 6.03 0 3.06 0 0 Z " fill="#E0E0E0" transform="translate(366,256)"/>
<path d="M0 0 C15.72877007 -1.20256373 15.72877007 -1.20256373 21 2.875 C23.88273258 5.95370783 24.45241934 8.25634926 24.5 12.4375 C24.335 13.943125 24.17 15.44875 24 17 C19.05 17 14.1 17 9 17 C9 14.36 9 11.72 9 9 C6.03 9 3.06 9 0 9 C0 6.03 0 3.06 0 0 Z " fill="#E3E3E3" transform="translate(248,256)"/>
<path d="M0 0 C15.72877007 -1.20256373 15.72877007 -1.20256373 21 2.875 C23.88273258 5.95370783 24.45241934 8.25634926 24.5 12.4375 C24.335 13.943125 24.17 15.44875 24 17 C19.05 17 14.1 17 9 17 C9 14.36 9 11.72 9 9 C6.03 9 3.06 9 0 9 C0 6.03 0 3.06 0 0 Z " fill="#E3E3E3" transform="translate(51,256)"/>
<path d="M0 0 C4.95 0 9.9 0 15 0 C15 7 15 7 13.50390625 8.92578125 C12.54291016 9.61220703 12.54291016 9.61220703 11.5625 10.3125 C8.81297999 12.25155028 8.81297999 12.25155028 7 15 C1.72 15 -3.56 15 -9 15 C-9 12.03 -9 9.06 -9 6 C-6.03 6 -3.06 6 0 6 C0 4.02 0 2.04 0 0 Z " fill="#E1E1E1" transform="translate(257,283)"/>
<path d="M0 0 C4.95 0 9.9 0 15 0 C15 7 15 7 13.50390625 8.92578125 C12.54291016 9.61220703 12.54291016 9.61220703 11.5625 10.3125 C8.81297999 12.25155028 8.81297999 12.25155028 7 15 C1.72 15 -3.56 15 -9 15 C-9 12.03 -9 9.06 -9 6 C-6.03 6 -3.06 6 0 6 C0 4.02 0 2.04 0 0 Z " fill="#E1E1E1" transform="translate(60,283)"/>
<path d="M0 0 C15.8985608 -1.030639 15.8985608 -1.030639 20.5 2.375 C23.1240556 5.21034319 23.38889115 7.57270802 23.4375 11.375 C23.293125 12.90125 23.14875 14.4275 23 16 C18.38 16 13.76 16 9 16 C9 13.03 9 10.06 9 7 C6.03 7 3.06 7 0 7 C0 4.69 0 2.38 0 0 Z " fill="#F4F4F4" transform="translate(162,257)"/>
<path d="M0 0 C4.62 0 9.24 0 14 0 C14 4.62 14 9.24 14 14 C7.4 14 0.8 14 -6 14 C-6 11.03 -6 8.06 -6 5 C-4.02 5 -2.04 5 0 5 C0 3.35 0 1.7 0 0 Z " fill="#E1E1E1" transform="translate(102,284)"/>
<path d="M0 0 C0.99 0 1.98 0 3 0 C4.67333158 3.12147545 6.33751716 6.24773498 8 9.375 C8.47695312 10.26445312 8.95390625 11.15390625 9.4453125 12.0703125 C9.89648438 12.92109375 10.34765625 13.771875 10.8125 14.6484375 C11.23144531 15.43395996 11.65039062 16.21948242 12.08203125 17.02880859 C13 19 13 19 13 21 C7.72 21 2.44 21 -3 21 C-7.06215722 13.6142596 -7.06215722 13.6142596 -6.80078125 11.03125 C-5.82534952 8.55698416 -4.58531242 6.47316218 -3.125 4.25 C-2.61195313 3.45078125 -2.09890625 2.6515625 -1.5703125 1.828125 C-1.05210937 1.22484375 -0.53390625 0.6215625 0 0 Z " fill="#EAEAEA" transform="translate(219,277)"/>
<path d="M0 0 C6.27 0 12.54 0 19 0 C19 0.33 19 0.66 19 1 C13.39 1 7.78 1 2 1 C2 3.31 2 5.62 2 8 C5.3 8 8.6 8 12 8 C12 12.62 12 17.24 12 22 C8.7 22 5.4 22 2 22 C1.67 28.6 1.34 35.2 1 42 C-3.95 42 -8.9 42 -14 42 C-14 41.67 -14 41.34 -14 41 C-9.38 41 -4.76 41 0 41 C0 27.47 0 13.94 0 0 Z " fill="#2F2F2F" transform="translate(337,256)"/>
<path d="M0 0 C4.62 0 9.24 0 14 0 C14 8.125 14 8.125 11.5 10.9375 C7.55857908 14.60851159 3.68515501 14.52809177 -1.4375 14.4375 C-3.9675073 14.3462311 -6.47454626 14.1910007 -9 14 C-9 11.69 -9 9.38 -9 7 C-6.03 7 -3.06 7 0 7 C0 4.69 0 2.38 0 0 Z " fill="#F2F2F2" transform="translate(171,283)"/>
<path d="M0 0 C4.05199705 -0.50649963 6.64879326 -0.73702186 10.27734375 1.2421875 C14.02854503 4.18616825 16.43590367 6.70587714 17.25 11.5 C17.36702517 16.39833938 15.94226534 19.12859823 13 23 C8.8354899 26.58610592 5.24964553 26.26693113 0 26 C0 25.67 0 25.34 0 25 C2.31 25 4.62 25 7 25 C7 17.08 7 9.16 7 1 C4.69 1 2.38 1 0 1 C0 0.67 0 0.34 0 0 Z " fill="#44A841" transform="translate(161,187)"/>
<path d="M0 0 C4.02642005 -0.49303103 7.5420642 -0.86992855 11.12109375 1.265625 C16.76856067 6.10295634 16.76856067 6.10295634 17.23828125 9.953125 C17.45317987 16.60367185 15.79682635 19.89241516 11.3125 24.875 C7.66574774 26.64909569 3.98371984 26.22982999 0 26 C0 25.67 0 25.34 0 25 C2.64 25 5.28 25 8 25 C8 17.08 8 9.16 8 1 C5.36 1 2.72 1 0 1 C0 0.67 0 0.34 0 0 Z " fill="#4AA73E" transform="translate(251,187)"/>
<path d="M0 0 C1.484375 1.9609375 1.484375 1.9609375 2.75 4.375 C3.17796875 5.16648437 3.6059375 5.95796875 4.046875 6.7734375 C5 9 5 9 5 12 C0.05 12 -4.9 12 -10 12 C-11.65 8.04 -13.3 4.08 -15 0 C-2.92765003 -1.29346607 -2.92765003 -1.29346607 0 0 Z " fill="#EDEDED" transform="translate(359,286)"/>
<path d="M0 0 C0 7.26 0 14.52 0 22 C-4 21 -4 21 -6.25 18.5 C-8.42701942 14.14596117 -8.88956908 10.78253473 -8 6 C-6.01740793 2.7184683 -4.25540578 0 0 0 Z " fill="#C9E334" transform="translate(251,189)"/>
<path d="M0 0 C0.99 0 1.98 0 3 0 C3 7.26 3 14.52 3 22 C-1.31996146 20.92000963 -1.79477866 20.57035837 -4 17 C-5.20643566 13.38069302 -5.32268559 10.80768995 -5 7 C-3.50254139 4.39152371 -2.12971098 2.12971098 0 0 Z " fill="#B5DA36" transform="translate(157,189)"/>
<path d="M0 0 C0.99 0 1.98 0 3 0 C7.39453125 11.71875 7.39453125 11.71875 8.18994141 13.84765625 C8.74271173 15.31637934 9.30259957 16.78243846 9.86865234 18.24609375 C12 23.78935185 12 23.78935185 12 26 C9.69 26 7.38 26 5 26 C4.67 26.66 4.34 27.32 4 28 C4.15597656 27.34773438 4.31195313 26.69546875 4.47265625 26.0234375 C4.66730469 25.14945312 4.86195313 24.27546875 5.0625 23.375 C5.35833984 22.08722656 5.35833984 22.08722656 5.66015625 20.7734375 C6.34534479 15.18166894 4.63889255 10.70513665 2.4375 5.625 C1.75494141 4.03558594 1.75494141 4.03558594 1.05859375 2.4140625 C0.70925781 1.61742187 0.35992187 0.82078125 0 0 Z " fill="#0B0B0B" transform="translate(288,258)"/>
<path d="M0 0 C5.83776596 4.67021277 5.83776596 4.67021277 6.23828125 7.953125 C6.41774475 13.50704803 5.73664814 16.60394337 2 21 C1.34 21.33 0.68 21.66 0 22 C0 14.74 0 7.48 0 0 Z " fill="#2CA145" transform="translate(262,189)"/>
<path d="M0 0 C0.99 0 1.98 0 3 0 C3 7.92 3 15.84 3 24 C2.01 24 1.02 24 0 24 C0 16.08 0 8.16 0 0 Z " fill="#6EC140" transform="translate(165,188)"/>
<path d="M0 0 C0.99 0 1.98 0 3 0 C3 7.92 3 15.84 3 24 C2.01 24 1.02 24 0 24 C0 16.08 0 8.16 0 0 Z " fill="#6BBF41" transform="translate(256,188)"/>
<path d="M0 0 C0 7.26 0 14.52 0 22 C-1.32 21.67 -2.64 21.34 -4 21 C-3.34 20.67 -2.68 20.34 -2 20 C-2.33 14.39 -2.66 8.78 -3 3 C-3.66 2.67 -4.32 2.34 -5 2 C-1.125 0 -1.125 0 0 0 Z " fill="#B5DD38" transform="translate(251,189)"/>
<path d="M0 0 C3 2 3 2 3.6171875 3.98828125 C4.05858887 7.96758152 4.29875921 10.33458176 2.625 14.0625 C2.08875 14.701875 1.5525 15.34125 1 16 C0.67 16 0.34 16 0 16 C0 10.72 0 5.44 0 0 Z " fill="#138F44" transform="translate(174,192)"/>
<path d="M0 0 C0.66 0 1.32 0 2 0 C2 4.62 2 9.24 2 14 C1.01 13.67 0.02 13.34 -1 13 C-2.17664871 9.47005387 -2.19850603 6.70544587 -2 3 C-1.34 2.01 -0.68 1.02 0 0 Z " fill="#E0ED32" transform="translate(154,193)"/>
<path d="M0 0 C0 0.99 0 1.98 0 3 C-3.76300374 4.25433458 -7.27210909 4.10695422 -11.1875 4.0625 C-11.93708984 4.05798828 -12.68667969 4.05347656 -13.45898438 4.04882812 C-15.30602383 4.03706354 -17.15302213 4.01912865 -19 4 C-19 3.67 -19 3.34 -19 3 C-12.64393761 1.0137305 -6.70266639 0 0 0 Z " fill="#595959" transform="translate(358,282)"/>
<path d="M0 0 C0.33 0 0.66 0 1 0 C1 4.62 1 9.24 1 14 C0.01 13.67 -0.98 13.34 -2 13 C-3.52846661 9.94306678 -3.23242445 7.37015453 -3 4 C-1.5625 1.5625 -1.5625 1.5625 0 0 Z " fill="#E2F234" transform="translate(246,193)"/>
<path d="M0 0 C4 4 4 4 4.49609375 6.21875 C4.46708984 7.34796875 4.46708984 7.34796875 4.4375 8.5 C4.43621094 9.2528125 4.43492187 10.005625 4.43359375 10.78125 C4 13 4 13 1 17 C0.67 11.39 0.34 5.78 0 0 Z " fill="#149346" transform="translate(264,191)"/>
<path d="M0 0 C0.33 0 0.66 0 1 0 C1 5.94 1 11.88 1 18 C-0.32 17.67 -1.64 17.34 -3 17 C-2.34 16.67 -1.68 16.34 -1 16 C-1.01160156 14.92878906 -1.02320313 13.85757813 -1.03515625 12.75390625 C-1.04453299 11.35677257 -1.05363331 9.95963701 -1.0625 8.5625 C-1.07506836 7.50192383 -1.07506836 7.50192383 -1.08789062 6.41992188 C-1.09653588 4.61306441 -1.05220011 2.80612397 -1 1 C-0.67 0.67 -0.34 0.34 0 0 Z " fill="#C9E636" transform="translate(157,191)"/>
<path d="M0 0 C0.99 0 1.98 0 3 0 C3.83764268 1.95649397 4.66999059 3.91525556 5.5 5.875 C6.19609375 7.51082031 6.19609375 7.51082031 6.90625 9.1796875 C8 12 8 12 8 14 C7.34 14 6.68 14 6 14 C1.77676538 4.58997722 1.77676538 4.58997722 0 0 Z " fill="#494949" transform="translate(288,258)"/>
<path d="M0 0 C1 3 1 3 1 5 C-0.66666667 6.66666667 -2.33333333 8.33333333 -4 10 C-5.43645379 11.95045643 -6.7103633 13.94613415 -8 16 C-8.66 15.67 -9.32 15.34 -10 15 C-5.05 7.575 -5.05 7.575 0 0 Z " fill="#404040" transform="translate(220,272)"/>
<path d="M0 0 C0 0.99 0 1.98 0 3 C-3.96 2.67 -7.92 2.34 -12 2 C-12 1.67 -12 1.34 -12 1 C-7.915021 0.45533613 -4.1274515 0 0 0 Z " fill="#868686" transform="translate(358,282)"/>
</svg>
