<?xml version="1.0" encoding="UTF-8"?>
<svg version="1.1" xmlns="http://www.w3.org/2000/svg" width="288" height="206">
<path d="M0 0 C95.04 0 190.08 0 288 0 C288 67.98 288 135.96 288 206 C192.96 206 97.92 206 0 206 C0 138.02 0 70.04 0 0 Z " fill="#000000" transform="translate(0,0)"/>
<path d="M0 0 C68.97 0 137.94 0 209 0 C208 6 208 6 201 22 C144.57 22 88.14 22 30 22 C32.64 33.55 35.28 45.1 38 57 C38 57.66 38 58.32 38 59 C87.5 59 137 59 188 59 C186.80529805 61.98675486 185.6215831 64.90716755 184.29516602 67.8269043 C183.97044815 68.54343674 183.64573029 69.25996918 183.31117249 69.99821472 C182.96227463 70.76579605 182.61337677 71.53337738 182.25390625 72.32421875 C181.4901126 74.0123147 180.72644544 75.70046788 179.96289062 77.38867188 C178.78011772 80.00087938 177.59648969 82.61268522 176.41040039 85.22338867 C169.67832603 100.0494845 163.34838326 114.99473048 157 130 C115.75 130 74.5 130 32 130 C27 112 27 112 27 109 C63.96 109 100.92 109 139 109 C139.99 106.03 140.98 103.06 142 100 C142.99935325 97.3833728 144.01109298 94.7824048 145.0625 92.1875 C145.31837891 91.54619141 145.57425781 90.90488281 145.83789062 90.24414062 C147.11036891 87.08093625 148.47298561 84.05402879 150 81 C107.1 81 64.2 81 20 81 C16.62550004 70.87650013 16.62550004 70.87650013 15.63720703 66.68994141 C15.30138107 65.28139389 15.30138107 65.28139389 14.95877075 63.84439087 C14.72745453 62.85675751 14.49613831 61.86912415 14.2578125 60.8515625 C14.00756317 59.79955658 13.75731384 58.74755066 13.4994812 57.66366577 C12.70415891 54.3183381 11.91415844 50.9717866 11.125 47.625 C10.08885126 43.24149195 9.04976578 38.85869441 8.0078125 34.4765625 C7.75598206 33.41536194 7.50415161 32.35416138 7.24468994 31.26080322 C5.44122836 23.71167654 3.52145839 16.19956347 1.46609497 8.71499634 C0.65350117 5.71911318 0 3.1201998 0 0 Z " fill="#BAE037" transform="translate(77,26)"/>
<path d="M0 0 C3.62821852 12.75531498 6.97085186 25.56932141 10.17456055 38.4375 C10.92993564 41.46963607 11.69028851 44.50049211 12.45117188 47.53125 C15.3216198 59.00568662 18.05673853 70.50428676 20.69190979 82.03492737 C22.5313624 90.05096103 24.4569602 98.0431119 26.4296875 106.02734375 C26.85547844 107.75079514 26.85547844 107.75079514 27.28987122 109.50906372 C28.44890398 114.19269559 29.61089942 118.87558363 30.77539062 123.55786133 C31.64229448 127.04696049 32.50499893 130.53707692 33.3671875 134.02734375 C33.6327243 135.08960678 33.89826111 136.15186981 34.17184448 137.24632263 C34.41274811 138.22327591 34.65365173 139.20022919 34.90185547 140.20678711 C35.11470184 141.06324326 35.32754822 141.9196994 35.54684448 142.80210876 C36 145 36 145 36 148 C32.04 148 28.08 148 24 148 C23.54109375 146.08058594 23.0821875 144.16117188 22.609375 142.18359375 C22.14938673 140.26697596 21.68938345 138.35036174 21.22900391 136.43383789 C20.76464197 134.49852314 20.30221134 132.56274531 19.83984375 130.62695312 C19.38544922 128.73686523 19.38544922 128.73686523 18.921875 126.80859375 C18.64956055 125.67220459 18.37724609 124.53581543 18.09667969 123.36499023 C17.1830112 119.65912179 16.19471793 115.97482472 15.20507812 112.28857422 C12.64399532 102.74048657 10.22245983 93.15745215 7.796875 83.57421875 C7.30936105 81.6498834 6.8218323 79.72555181 6.33428955 77.80122375 C5.32176009 73.80361538 4.31005545 69.80579927 3.29882812 65.80786133 C2.00088926 60.67707182 0.69984083 55.54707608 -0.60191727 50.41725445 C-1.605477 46.46041494 -2.60691504 42.50304076 -3.60774994 38.54551125 C-4.08702963 36.6518169 -4.56709345 34.75832084 -5.04795074 32.86502647 C-5.71551817 30.2356912 -6.38011238 27.605622 -7.04394531 24.9753418 C-7.24337738 24.19258377 -7.44280945 23.40982574 -7.64828491 22.60334778 C-9 17.22829338 -9 17.22829338 -9 15 C-10.2375 15.36351562 -11.475 15.72703125 -12.75 16.1015625 C-26.41926618 20.0802596 -40.17057125 23.62346415 -54 27 C-54.99 22.71 -55.98 18.42 -57 14 C-49.36570614 12.00154543 -41.73019548 10.00783476 -34.09350586 8.01855469 C-31.49441998 7.34123933 -28.89581812 6.66211 -26.29760742 5.98144531 C-22.56777741 5.00504257 -18.83675794 4.03330943 -15.10546875 3.0625 C-13.93976852 2.75626709 -12.7740683 2.45003418 -11.57304382 2.13452148 C-10.49214981 1.85423096 -9.4112558 1.57394043 -8.29760742 1.28515625 C-6.86864388 0.91209351 -6.86864388 0.91209351 -5.41081238 0.53149414 C-3 0 -3 0 0 0 Z " fill="#5FB841" transform="translate(57,7)"/>
<path d="M0 0 C4.02345025 2.23447669 7.16982432 4.86257936 8.86328125 9.22265625 C9.54311511 13.2261223 9.22648662 16.24853448 7.375 19.875 C4.96651113 23.0440643 3.6859693 24.5758755 0 26 C-4.78843042 26.53204782 -6.98517492 26.49783872 -11.3125 24.375 C-15.35070586 20.80635297 -16.77134963 17.82920294 -17.4375 12.5 C-16.79222346 7.33778768 -14.70698109 4.42248424 -10.75 1.125 C-7.01848603 -0.40152844 -3.90119902 -0.97887228 0 0 Z " fill="#95D13C" transform="translate(121,172)"/>
<path d="M0 0 C3.3792573 2.03005291 6.22397384 4.44794768 8 8 C8.57425085 12.70697417 8.45554552 16.12144792 6.25 20.375 C1.67574495 25.71163089 1.67574495 25.71163089 -2.04296875 26.3515625 C-6.21318274 26.61700326 -9.10645472 26.4017412 -12.4375 23.75 C-16.45264502 19.44106388 -17.55713207 16.14399046 -17.4609375 10.32421875 C-16.65549538 6.26287923 -14.05462619 3.65894922 -11 1 C-7.48308711 -0.75845645 -3.82789463 -0.68065337 0 0 Z " fill="#91CE3B" transform="translate(212,172)"/>
<path d="M0 0 C4.05199705 -0.50649963 6.64879326 -0.73702186 10.27734375 1.2421875 C14.02854503 4.18616825 16.43590367 6.70587714 17.25 11.5 C17.36702517 16.39833938 15.94226534 19.12859823 13 23 C8.8354899 26.58610592 5.24964553 26.26693113 0 26 C0 25.67 0 25.34 0 25 C2.31 25 4.62 25 7 25 C7 17.08 7 9.16 7 1 C4.69 1 2.38 1 0 1 C0 0.67 0 0.34 0 0 Z " fill="#44A841" transform="translate(113,172)"/>
<path d="M0 0 C4.02642005 -0.49303103 7.5420642 -0.86992855 11.12109375 1.265625 C16.76856067 6.10295634 16.76856067 6.10295634 17.23828125 9.953125 C17.45317987 16.60367185 15.79682635 19.89241516 11.3125 24.875 C7.66574774 26.64909569 3.98371984 26.22982999 0 26 C0 25.67 0 25.34 0 25 C2.64 25 5.28 25 8 25 C8 17.08 8 9.16 8 1 C5.36 1 2.72 1 0 1 C0 0.67 0 0.34 0 0 Z " fill="#4AA73E" transform="translate(203,172)"/>
<path d="M0 0 C0 7.26 0 14.52 0 22 C-4 21 -4 21 -6.25 18.5 C-8.42701942 14.14596117 -8.88956908 10.78253473 -8 6 C-6.01740793 2.7184683 -4.25540578 0 0 0 Z " fill="#C9E334" transform="translate(203,174)"/>
<path d="M0 0 C0.99 0 1.98 0 3 0 C3 7.26 3 14.52 3 22 C-1.31996146 20.92000963 -1.79477866 20.57035837 -4 17 C-5.20643566 13.38069302 -5.32268559 10.80768995 -5 7 C-3.50254139 4.39152371 -2.12971098 2.12971098 0 0 Z " fill="#B5DA36" transform="translate(109,174)"/>
<path d="M0 0 C5.83776596 4.67021277 5.83776596 4.67021277 6.23828125 7.953125 C6.41774475 13.50704803 5.73664814 16.60394337 2 21 C1.34 21.33 0.68 21.66 0 22 C0 14.74 0 7.48 0 0 Z " fill="#2CA145" transform="translate(214,174)"/>
<path d="M0 0 C0.99 0 1.98 0 3 0 C3 7.92 3 15.84 3 24 C2.01 24 1.02 24 0 24 C0 16.08 0 8.16 0 0 Z " fill="#6EC140" transform="translate(117,173)"/>
<path d="M0 0 C0.99 0 1.98 0 3 0 C3 7.92 3 15.84 3 24 C2.01 24 1.02 24 0 24 C0 16.08 0 8.16 0 0 Z " fill="#6BBF41" transform="translate(208,173)"/>
<path d="M0 0 C0 7.26 0 14.52 0 22 C-1.32 21.67 -2.64 21.34 -4 21 C-3.34 20.67 -2.68 20.34 -2 20 C-2.33 14.39 -2.66 8.78 -3 3 C-3.66 2.67 -4.32 2.34 -5 2 C-1.125 0 -1.125 0 0 0 Z " fill="#B5DD38" transform="translate(203,174)"/>
<path d="M0 0 C3 2 3 2 3.6171875 3.98828125 C4.05858887 7.96758152 4.29875921 10.33458176 2.625 14.0625 C2.08875 14.701875 1.5525 15.34125 1 16 C0.67 16 0.34 16 0 16 C0 10.72 0 5.44 0 0 Z " fill="#138F44" transform="translate(126,177)"/>
<path d="M0 0 C0.66 0 1.32 0 2 0 C2 4.62 2 9.24 2 14 C1.01 13.67 0.02 13.34 -1 13 C-2.17664871 9.47005387 -2.19850603 6.70544587 -2 3 C-1.34 2.01 -0.68 1.02 0 0 Z " fill="#E0ED32" transform="translate(106,178)"/>
<path d="M0 0 C0.33 0 0.66 0 1 0 C1 4.62 1 9.24 1 14 C0.01 13.67 -0.98 13.34 -2 13 C-3.52846661 9.94306678 -3.23242445 7.37015453 -3 4 C-1.5625 1.5625 -1.5625 1.5625 0 0 Z " fill="#E2F234" transform="translate(198,178)"/>
<path d="M0 0 C4 4 4 4 4.49609375 6.21875 C4.46708984 7.34796875 4.46708984 7.34796875 4.4375 8.5 C4.43621094 9.2528125 4.43492187 10.005625 4.43359375 10.78125 C4 13 4 13 1 17 C0.67 11.39 0.34 5.78 0 0 Z " fill="#149346" transform="translate(216,176)"/>
<path d="M0 0 C0.33 0 0.66 0 1 0 C1 5.94 1 11.88 1 18 C-0.32 17.67 -1.64 17.34 -3 17 C-2.34 16.67 -1.68 16.34 -1 16 C-1.01160156 14.92878906 -1.02320312 13.85757813 -1.03515625 12.75390625 C-1.04453299 11.35677257 -1.05363331 9.95963701 -1.0625 8.5625 C-1.07506836 7.50192383 -1.07506836 7.50192383 -1.08789062 6.41992188 C-1.09653588 4.61306441 -1.05220011 2.80612397 -1 1 C-0.67 0.67 -0.34 0.34 0 0 Z " fill="#C9E636" transform="translate(109,176)"/>
</svg>
